<svg width="35" height="22" viewBox="0 0 35 22" fill="none" xmlns="http://www.w3.org/2000/svg">
<path d="M34.9641 9.71875C34.9797 9.98438 34.9876 10.2383 34.9876 10.4805C34.9876 11.8008 34.7415 12.9922 34.2493 14.0547C33.6555 15.3203 32.8274 16.3633 31.7649 17.1836C29.9602 18.5742 27.761 19.2852 25.1672 19.3164H24.2297C23.7766 19.3164 23.3508 19.3125 22.9524 19.3047H21.5813C20.9251 19.3047 20.429 19.293 20.093 19.2695H19.8235C19.5188 19.2695 19.1165 19.293 18.6165 19.3398C18.2493 19.3398 18.0657 19.1758 18.0657 18.8477C18.0657 18.5508 18.261 18.332 18.6516 18.1914C19.0422 18.0508 19.2376 17.7773 19.2376 17.3711V4.21094C19.2376 3.8125 19.0422 3.54687 18.6516 3.41406C18.261 3.27344 18.0657 3.05078 18.0657 2.74609C18.0657 2.42578 18.2454 2.26562 18.6047 2.26562C18.9329 2.27344 19.2649 2.27734 19.6008 2.27734C19.929 2.27734 20.261 2.27344 20.5969 2.26562C21.2688 2.24219 21.929 2.22266 22.5774 2.20703H23.2688C24.4719 2.20703 25.6829 2.23828 26.9016 2.30078C28.3704 2.38672 29.6985 2.68359 30.886 3.19141C32.011 3.69141 32.9407 4.45313 33.6751 5.47656C34.4172 6.5 34.8469 7.91406 34.9641 9.71875ZM22.0618 3.80078V17.6406C22.8587 17.7891 23.6907 17.8633 24.5579 17.8633C24.8938 17.8633 25.2219 17.8516 25.5422 17.8281C26.6907 17.7422 27.7063 17.4648 28.5891 16.9961C29.636 16.4492 30.4641 15.6016 31.0735 14.4531C31.636 13.3906 31.9172 12.0312 31.9172 10.375V9.98828C31.886 8.75391 31.6672 7.72266 31.261 6.89453C30.8626 6.06641 30.3352 5.41016 29.679 4.92578C28.718 4.20703 27.5501 3.78516 26.1751 3.66016C25.6985 3.62109 25.2141 3.60156 24.7219 3.60156C23.7766 3.60156 22.8899 3.66797 22.0618 3.80078Z" fill="#333333"/>
<path d="M34.9641 9.71875L35.4633 9.68939L35.4631 9.68635L34.9641 9.71875ZM34.2493 14.0547L34.7019 14.2671L34.703 14.2649L34.2493 14.0547ZM31.7649 17.1836L32.0701 17.5797L32.0705 17.5794L31.7649 17.1836ZM25.1672 19.3164V19.8164L25.1733 19.8164L25.1672 19.3164ZM22.9524 19.3047L22.9622 18.8047H22.9524V19.3047ZM20.093 19.2695L20.1278 18.7707L20.1104 18.7695H20.093V19.2695ZM18.6165 19.3398V19.8398H18.6398L18.6631 19.8377L18.6165 19.3398ZM18.6516 3.41406L18.4822 3.88458L18.4907 3.88745L18.6516 3.41406ZM18.6047 2.26562L18.6166 1.76562H18.6047V2.26562ZM20.5969 2.26562L20.6086 2.76552L20.6144 2.76532L20.5969 2.26562ZM22.5774 2.20703V1.70689L22.5654 1.70718L22.5774 2.20703ZM26.9016 2.30078L26.9308 1.80162L26.9272 1.80144L26.9016 2.30078ZM30.886 3.19141L31.0891 2.73445L31.0826 2.73168L30.886 3.19141ZM33.6751 5.47656L33.2688 5.76806L33.2703 5.7701L33.6751 5.47656ZM22.0618 3.80078L21.9826 3.30709L21.5618 3.37458V3.80078H22.0618ZM22.0618 17.6406H21.5618V18.0561L21.9702 18.1322L22.0618 17.6406ZM25.5422 17.8281L25.5787 18.3268L25.5796 18.3267L25.5422 17.8281ZM28.5891 16.9961L28.3576 16.5529L28.3546 16.5545L28.5891 16.9961ZM31.0735 14.4531L31.5152 14.6875L31.5154 14.6871L31.0735 14.4531ZM31.9172 9.98828L32.4174 9.98828L32.4171 9.97563L31.9172 9.98828ZM31.261 6.89453L30.8104 7.11132L30.8121 7.11474L31.261 6.89453ZM29.679 4.92578L29.3795 5.32618L29.382 5.32807L29.679 4.92578ZM26.1751 3.66016L26.2203 3.16219L26.2159 3.16183L26.1751 3.66016ZM34.465 9.74811C34.4801 10.0049 34.4876 10.249 34.4876 10.4805H35.4876C35.4876 10.2276 35.4794 9.96385 35.4633 9.68939L34.465 9.74811ZM34.4876 10.4805C34.4876 11.7375 34.2536 12.8558 33.7956 13.8445L34.703 14.2649C35.2293 13.1286 35.4876 11.8641 35.4876 10.4805H34.4876ZM33.7966 13.8423C33.2352 15.0391 32.4563 16.0181 31.4593 16.7878L32.0705 17.5794C33.1985 16.7084 34.0759 15.6016 34.7019 14.267L33.7966 13.8423ZM31.4597 16.7875C29.7525 18.103 27.6623 18.7863 25.1612 18.8164L25.1733 19.8164C27.8597 19.784 30.1679 19.0454 32.0701 17.5797L31.4597 16.7875ZM25.1672 18.8164H24.2297V19.8164H25.1672V18.8164ZM24.2297 18.8164C23.7795 18.8164 23.357 18.8125 22.9622 18.8048L22.9426 19.8046C23.3447 19.8125 23.7738 19.8164 24.2297 19.8164V18.8164ZM22.9524 18.8047H21.5813V19.8047H22.9524V18.8047ZM21.5813 18.8047C20.928 18.8047 20.4459 18.7929 20.1278 18.7707L20.0582 19.7683C20.412 19.793 20.9221 19.8047 21.5813 19.8047V18.8047ZM20.093 18.7695H19.8235V19.7695H20.093V18.7695ZM19.8235 18.7695C19.4965 18.7695 19.0768 18.7945 18.5698 18.842L18.6631 19.8377C19.1562 19.7914 19.5411 19.7695 19.8235 19.7695V18.7695ZM18.6165 18.8398C18.5603 18.8398 18.53 18.8334 18.5182 18.8299C18.5082 18.8269 18.5191 18.8284 18.5365 18.844C18.5448 18.8514 18.5523 18.8599 18.5582 18.8689C18.5642 18.8777 18.5672 18.8847 18.5686 18.8882C18.5709 18.8946 18.5657 18.8843 18.5657 18.8477H17.5657C17.5657 19.1043 17.64 19.3839 17.8702 19.5896C18.0897 19.7857 18.3688 19.8398 18.6165 19.8398V18.8398ZM18.5657 18.8477C18.5657 18.8293 18.5685 18.8204 18.5699 18.8168C18.5712 18.8132 18.5745 18.8058 18.5851 18.7939C18.6092 18.767 18.6733 18.715 18.821 18.6618L18.4823 17.721C18.2393 17.8084 18.0105 17.9361 17.8392 18.1279C17.6586 18.3302 17.5657 18.5781 17.5657 18.8477H18.5657ZM18.821 18.6618C19.0892 18.5653 19.3286 18.4086 19.4979 18.1715C19.6679 17.9335 19.7376 17.6562 19.7376 17.3711H18.7376C18.7376 17.4922 18.7095 17.5548 18.6842 17.5902C18.6582 17.6266 18.6047 17.6769 18.4823 17.721L18.821 18.6618ZM19.7376 17.3711V4.21094H18.7376V17.3711H19.7376ZM19.7376 4.21094C19.7376 3.9279 19.6669 3.65203 19.4939 3.4167C19.3219 3.18282 19.0802 3.03168 18.8126 2.94068L18.4907 3.88745C18.6136 3.92926 18.6649 3.97733 18.6882 4.00909C18.7105 4.03937 18.7376 4.09554 18.7376 4.21094H19.7376ZM18.821 2.94362C18.675 2.89108 18.6119 2.83912 18.588 2.81188C18.5729 2.7946 18.5657 2.78094 18.5657 2.74609H17.5657C17.5657 3.01594 17.6561 3.26595 17.8363 3.47132C18.0077 3.66674 18.2376 3.79642 18.4823 3.88451L18.821 2.94362ZM18.5657 2.74609C18.5657 2.71151 18.5707 2.70308 18.5677 2.71103C18.5661 2.71538 18.5626 2.72311 18.5563 2.73252C18.5498 2.74206 18.5419 2.75115 18.5331 2.759C18.5147 2.77542 18.5026 2.77753 18.5113 2.77495C18.5217 2.77186 18.5504 2.76562 18.6047 2.76562V1.76562C18.3613 1.76562 18.0853 1.81863 17.8678 2.01249C17.6393 2.21611 17.5657 2.49302 17.5657 2.74609H18.5657ZM18.5928 2.76548C18.925 2.77339 19.261 2.77734 19.6008 2.77734V1.77734C19.2688 1.77734 18.9407 1.77348 18.6166 1.76577L18.5928 2.76548ZM19.6008 2.77734C19.9329 2.77734 20.2688 2.77339 20.6086 2.76549L20.5853 1.76576C20.2532 1.77348 19.925 1.77734 19.6008 1.77734V2.77734ZM20.6144 2.76532C21.2845 2.74194 21.9429 2.72247 22.5894 2.70689L22.5654 1.70718C21.9151 1.72285 21.2531 1.74243 20.5795 1.76593L20.6144 2.76532ZM22.5774 2.70703H23.2688V1.70703H22.5774V2.70703ZM23.2688 2.70703C24.4633 2.70703 25.6657 2.73806 26.876 2.80013L26.9272 1.80144C25.7001 1.73851 24.4806 1.70703 23.2688 1.70703V2.70703ZM26.8724 2.79993C28.2914 2.88296 29.5618 3.16895 30.6894 3.65114L31.0826 2.73168C29.8352 2.19823 28.4493 1.89048 26.9308 1.80163L26.8724 2.79993ZM30.6829 3.64831C31.7248 4.11135 32.585 4.81508 33.2688 5.76806L34.0813 5.18506C33.2964 4.09117 32.2972 3.27147 31.0891 2.7345L30.6829 3.64831ZM33.2703 5.7701C33.9381 6.69095 34.3516 8.00212 34.4652 9.75115L35.4631 9.68635C35.3423 7.826 34.8964 6.30905 34.0798 5.18303L33.2703 5.7701ZM21.5618 3.80078V17.6406H22.5618V3.80078H21.5618ZM21.9702 18.1322C22.7993 18.2866 23.6621 18.3633 24.5579 18.3633V17.3633C23.7193 17.3633 22.918 17.2915 22.1533 17.1491L21.9702 18.1322ZM24.5579 18.3633C24.9054 18.3633 25.2457 18.3512 25.5787 18.3268L25.5058 17.3295C25.1981 17.352 24.8822 17.3633 24.5579 17.3633V18.3633ZM25.5796 18.3267C26.7865 18.2364 27.8711 17.9435 28.8236 17.4377L28.3546 16.5545C27.5415 16.9862 26.5948 17.248 25.5049 17.3295L25.5796 18.3267ZM28.8206 17.4393C29.966 16.8409 30.8634 15.9158 31.5152 14.6875L30.6318 14.2188C30.0648 15.2874 29.306 16.0575 28.3576 16.5529L28.8206 17.4393ZM31.5154 14.6871C32.1277 13.5305 32.4172 12.0836 32.4172 10.375H31.4172C31.4172 11.9789 31.1443 13.2508 30.6316 14.2192L31.5154 14.6871ZM32.4172 10.375V9.98828H31.4172V10.375H32.4172ZM32.4171 9.97563C32.3846 8.69237 32.1567 7.58514 31.7099 6.67432L30.8121 7.11474C31.1778 7.86017 31.3874 8.81544 31.4174 10.0009L32.4171 9.97563ZM31.7116 6.67775C31.2823 5.78562 30.7056 5.06211 29.9759 4.52349L29.382 5.32807C29.9648 5.7582 30.4428 6.34719 30.8104 7.11131L31.7116 6.67775ZM29.9784 4.52539C28.9328 3.7433 27.6733 3.2943 26.2203 3.16221L26.1298 4.1581C27.4268 4.27601 28.5032 4.67076 29.3795 5.32617L29.9784 4.52539ZM26.2159 3.16183C25.7254 3.12162 25.2274 3.10156 24.7219 3.10156V4.10156C25.2009 4.10156 25.6716 4.12057 26.1342 4.15849L26.2159 3.16183ZM24.7219 3.10156C23.7534 3.10156 22.84 3.16959 21.9826 3.30709L22.141 4.29447C22.9398 4.16635 23.7999 4.10156 24.7219 4.10156V3.10156Z" fill="#DDDDDD"/>
<path d="M2.87182 18.0156C2.72338 18.1406 2.50463 18.2148 2.21557 18.2383C1.82494 18.2852 1.62963 18.4453 1.62963 18.7188V18.7656C1.67651 19.0781 1.85619 19.2344 2.16869 19.2344H5.2976C5.47729 19.2344 5.81322 18.9102 6.30541 18.2617C6.7976 17.6133 7.34838 16.8672 7.95776 16.0234C8.56713 15.1797 9.19213 14.3164 9.83276 13.4336C10.4656 12.5508 10.9695 11.8789 11.3445 11.418H12.7624V17.2891C12.7624 17.6953 12.5671 17.9688 12.1765 18.1094C11.7859 18.2422 11.5906 18.457 11.5906 18.7539C11.5906 19.0742 11.7663 19.2344 12.1179 19.2344H16.0906C16.4499 19.2344 16.6296 19.0742 16.6296 18.7539C16.6296 18.457 16.4343 18.2422 16.0437 18.1094C15.6531 17.9688 15.4578 17.6953 15.4578 17.2891V4.26953C15.4578 3.87109 15.6531 3.60156 16.0437 3.46094C16.4343 3.32031 16.6296 3.09766 16.6296 2.79297C16.6296 2.47266 16.4499 2.3125 16.0906 2.3125H9.17651C8.33276 2.3125 7.44994 2.46484 6.52807 2.76953C5.59838 3.06641 4.87572 3.65625 4.3601 4.53906C3.96947 5.23437 3.77416 6.0625 3.77416 7.02344C3.78979 7.94531 4.05541 8.77734 4.57104 9.51953C4.99291 10.1133 5.57494 10.5664 6.31713 10.8789C7.05151 11.1914 7.59447 11.3555 7.94604 11.3711L2.87182 18.0156ZM12.7624 3.75391V10.1289H10.3367C9.82885 10.1289 9.32104 10.0586 8.81322 9.91797C8.2976 9.76953 7.85619 9.51172 7.48901 9.14453C6.91088 8.58984 6.62182 7.84375 6.62182 6.90625C6.62182 6.00781 6.9226 5.26172 7.52416 4.66797C8.15697 4.05859 9.01635 3.75391 10.1023 3.75391H12.7624Z" fill="#333333"/>
<path d="M2.87182 18.0156L3.2692 18.3191L3.23588 18.3627L3.19389 18.3981L2.87182 18.0156ZM2.21557 18.2383L2.156 17.7418L2.16556 17.7407L2.17516 17.7399L2.21557 18.2383ZM1.62963 18.7656L1.13516 18.8398L1.12963 18.8029V18.7656H1.62963ZM9.83276 13.4336L10.2391 13.7249L10.2374 13.7273L9.83276 13.4336ZM11.3445 11.418L10.9566 11.1024L11.1067 10.918H11.3445V11.418ZM12.7624 11.418V10.918H13.2624V11.418H12.7624ZM12.1765 18.1094L12.3459 18.5799L12.3375 18.5828L12.1765 18.1094ZM16.0437 18.1094L15.8827 18.5828L15.8743 18.5798L16.0437 18.1094ZM6.52807 2.76953L6.68498 3.2443L6.68017 3.24584L6.52807 2.76953ZM4.3601 4.53906L3.92412 4.29413L3.92835 4.28689L4.3601 4.53906ZM3.77416 7.02344L3.27416 7.03191V7.02344H3.77416ZM4.57104 9.51953L4.16342 9.80915L4.16041 9.80481L4.57104 9.51953ZM6.31713 10.8789L6.51116 10.4181L6.51291 10.4188L6.31713 10.8789ZM7.94604 11.3711L7.96824 10.8716L8.92417 10.9141L8.34342 11.6746L7.94604 11.3711ZM12.7624 3.75391V3.25391H13.2624V3.75391H12.7624ZM12.7624 10.1289H13.2624V10.6289H12.7624V10.1289ZM8.81322 9.91797L8.67978 10.3999L8.6749 10.3985L8.81322 9.91797ZM7.48901 9.14453L7.83524 8.78366L7.84256 8.79098L7.48901 9.14453ZM7.52416 4.66797L7.1729 4.31209L7.17734 4.30781L7.52416 4.66797ZM3.19389 18.3981C2.93539 18.6158 2.60019 18.7087 2.25598 18.7366L2.17516 17.7399C2.40907 17.721 2.51137 17.6655 2.54975 17.6332L3.19389 18.3981ZM2.27514 18.7347C2.20481 18.7432 2.15667 18.7552 2.1258 18.7661C2.0951 18.777 2.08815 18.7843 2.09316 18.7802C2.10017 18.7744 2.11291 18.7607 2.12214 18.7403C2.13085 18.7209 2.12963 18.7106 2.12963 18.7188H1.12963C1.12963 18.4464 1.23512 18.1906 1.45908 18.0069C1.66071 17.8416 1.91466 17.7708 2.156 17.7418L2.27514 18.7347ZM2.12963 18.7188V18.7656H1.12963V18.7188H2.12963ZM2.1241 18.6915C2.12989 18.7301 2.13754 18.7483 2.13986 18.7531C2.14149 18.7565 2.1384 18.7492 2.12764 18.7399C2.11681 18.7305 2.10854 18.7279 2.11051 18.7285C2.11408 18.7296 2.13149 18.7344 2.16869 18.7344V19.7344C1.9302 19.7344 1.67757 19.6737 1.47146 19.4945C1.26609 19.3159 1.17041 19.0748 1.13516 18.8398L2.1241 18.6915ZM2.16869 18.7344H5.2976V19.7344H2.16869V18.7344ZM5.2976 18.7344C5.20354 18.7344 5.16164 18.7716 5.19551 18.7503C5.21977 18.7351 5.26627 18.6998 5.3371 18.6314C5.47791 18.4955 5.66698 18.2758 5.90715 17.9594L6.70368 18.564C6.45166 18.896 6.22666 19.1627 6.03154 19.351C5.9344 19.4447 5.83246 19.5311 5.72781 19.5969C5.63278 19.6566 5.4815 19.7344 5.2976 19.7344V18.7344ZM5.90715 17.9594C6.39639 17.3149 6.94476 16.5721 7.55242 15.7307L8.3631 16.3162C7.752 17.1623 7.19881 17.9117 6.70368 18.564L5.90715 17.9594ZM7.55242 15.7307C8.16202 14.8866 8.78724 14.023 9.42808 13.1399L10.2374 13.7273C9.59702 14.6098 8.97224 15.4728 8.3631 16.3162L7.55242 15.7307ZM9.42638 13.1423C10.0611 12.2568 10.572 11.5752 10.9566 11.1024L11.7323 11.7335C11.367 12.1826 10.87 12.8448 10.2391 13.7249L9.42638 13.1423ZM11.3445 10.918H12.7624V11.918H11.3445V10.918ZM13.2624 11.418V17.2891H12.2624V11.418H13.2624ZM13.2624 17.2891C13.2624 17.5742 13.1928 17.8515 13.0228 18.0894C12.8535 18.3265 12.6141 18.4833 12.3459 18.5798L12.0071 17.6389C12.1296 17.5949 12.1831 17.5446 12.2091 17.5082C12.2344 17.4727 12.2624 17.4102 12.2624 17.2891H13.2624ZM12.3375 18.5828C12.1905 18.6327 12.1288 18.6825 12.107 18.7065C12.0976 18.7168 12.0952 18.7227 12.0943 18.7249C12.0934 18.7273 12.0906 18.7355 12.0906 18.7539H11.0906C11.0906 18.4842 11.1837 18.2355 11.3671 18.0338C11.5406 17.8429 11.7719 17.7188 12.0156 17.636L12.3375 18.5828ZM12.0906 18.7539C12.0906 18.7896 12.0956 18.7992 12.0931 18.7923C12.0917 18.7885 12.0885 18.781 12.0823 18.7717C12.0761 18.7622 12.0682 18.7529 12.0591 18.7447C12.0502 18.7365 12.042 18.7312 12.0364 18.7281C12.031 18.7251 12.0291 18.7249 12.0325 18.7259C12.036 18.727 12.0444 18.7292 12.0589 18.731C12.0733 18.7329 12.0928 18.7344 12.1179 18.7344V19.7344C11.876 19.7344 11.6012 19.6803 11.3857 19.4839C11.1613 19.2794 11.0906 19.0037 11.0906 18.7539H12.0906ZM12.1179 18.7344H16.0906V19.7344H12.1179V18.7344ZM16.0906 18.7344C16.1449 18.7344 16.1736 18.7281 16.184 18.7251C16.1927 18.7225 16.1806 18.7246 16.1622 18.741C16.1534 18.7488 16.1455 18.7579 16.139 18.7675C16.1327 18.7769 16.1292 18.7846 16.1276 18.789C16.1246 18.7969 16.1296 18.7885 16.1296 18.7539H17.1296C17.1296 19.007 17.056 19.2839 16.8276 19.4875C16.6101 19.6814 16.3341 19.7344 16.0906 19.7344V18.7344ZM16.1296 18.7539C16.1296 18.7355 16.1268 18.7273 16.1259 18.7249C16.125 18.7227 16.1226 18.7168 16.1132 18.7065C16.0914 18.6825 16.0297 18.6327 15.8827 18.5828L16.2046 17.636C16.4483 17.7188 16.6795 17.8429 16.8531 18.0338C17.0365 18.2355 17.1296 18.4842 17.1296 18.7539H16.1296ZM15.8743 18.5798C15.6061 18.4833 15.3667 18.3265 15.1974 18.0894C15.0274 17.8515 14.9578 17.5742 14.9578 17.2891H15.9578C15.9578 17.4102 15.9858 17.4727 16.0111 17.5082C16.0371 17.5446 16.0906 17.5949 16.2131 17.6389L15.8743 18.5798ZM14.9578 17.2891V4.26953H15.9578V17.2891H14.9578ZM14.9578 4.26953C14.9578 3.98622 15.0285 3.71102 15.1994 3.47517C15.3691 3.24096 15.608 3.08638 15.8743 2.99049L16.2131 3.93138C16.0888 3.97612 16.0347 4.02661 16.0091 4.06194C15.9847 4.09563 15.9578 4.15441 15.9578 4.26953H14.9578ZM15.8743 2.99049C16.0203 2.93795 16.0834 2.88599 16.1073 2.85876C16.1224 2.84147 16.1296 2.82781 16.1296 2.79297H17.1296C17.1296 3.06281 17.0392 3.31283 16.859 3.5182C16.6876 3.71362 16.4577 3.8433 16.2131 3.93138L15.8743 2.99049ZM16.1296 2.79297C16.1296 2.75839 16.1246 2.74995 16.1276 2.75791C16.1292 2.76226 16.1327 2.76998 16.139 2.7794C16.1455 2.78894 16.1534 2.79803 16.1622 2.80587C16.1806 2.8223 16.1927 2.82441 16.184 2.82182C16.1736 2.81873 16.1449 2.8125 16.0906 2.8125V1.8125C16.3341 1.8125 16.6101 1.86551 16.8276 2.05936C17.056 2.26298 17.1296 2.53989 17.1296 2.79297H16.1296ZM16.0906 2.8125H9.17651V1.8125H16.0906V2.8125ZM9.17651 2.8125C8.39342 2.8125 7.56371 2.95384 6.68497 3.24427L6.37116 2.29479C7.33617 1.97584 8.27209 1.8125 9.17651 1.8125V2.8125ZM6.68017 3.24584C5.87419 3.50321 5.2484 4.00956 4.79185 4.79124L3.92835 4.28689C4.50304 3.30294 5.32258 2.6296 6.37597 2.29323L6.68017 3.24584ZM4.79602 4.78396C4.45523 5.39056 4.27416 6.13075 4.27416 7.02344H3.27416C3.27416 5.99425 3.48372 5.07819 3.92418 4.29416L4.79602 4.78396ZM4.27409 7.01496C4.28807 7.83989 4.52378 8.57518 4.98167 9.23425L4.16041 9.80481C3.58704 8.97951 3.2915 8.05073 3.27423 7.03191L4.27409 7.01496ZM4.97863 9.22993C5.34104 9.73999 5.84535 10.1377 6.51116 10.4181L6.1231 11.3397C5.30453 10.9951 4.64478 10.4866 4.16345 9.80913L4.97863 9.22993ZM6.51291 10.4188C7.24435 10.7301 7.71463 10.8603 7.96824 10.8716L7.92384 11.8706C7.47432 11.8506 6.85866 11.6527 6.12135 11.339L6.51291 10.4188ZM8.34342 11.6746L3.2692 18.3191L2.47444 17.7122L7.54866 11.0676L8.34342 11.6746ZM13.2624 3.75391V10.1289H12.2624V3.75391H13.2624ZM12.7624 10.6289H10.3367V9.62891H12.7624V10.6289ZM10.3367 10.6289C9.78208 10.6289 9.22941 10.552 8.67979 10.3998L8.94666 9.4361C9.41266 9.56515 9.87562 9.62891 10.3367 9.62891V10.6289ZM8.6749 10.3985C8.08077 10.2274 7.56452 9.92716 7.13545 9.49808L7.84256 8.79098C8.14786 9.09628 8.51443 9.31165 8.95155 9.43748L8.6749 10.3985ZM7.14284 9.50532C6.44965 8.84024 6.12182 7.95478 6.12182 6.90625H7.12182C7.12182 7.73272 7.37211 8.33945 7.83517 8.78374L7.14284 9.50532ZM6.12182 6.90625C6.12182 5.88343 6.46972 5.00619 7.17293 4.31211L7.8754 5.02383C7.37548 5.51725 7.12182 6.1322 7.12182 6.90625H6.12182ZM7.17734 4.30781C7.92418 3.58863 8.9192 3.25391 10.1023 3.25391V4.25391C9.1135 4.25391 8.38977 4.52856 7.87098 5.02813L7.17734 4.30781ZM10.1023 3.25391H12.7624V4.25391H10.1023V3.25391Z" fill="#DDDDDD"/>
</svg>
